<svg width="86" height="86" viewBox="0 0 86 86" fill="none" xmlns="http://www.w3.org/2000/svg">
<path d="M84.8175 16.209L58.6547 0C55.9538 4.66953 49.9741 7.92812 43 7.92812C36.0259 7.92812 30.0463 4.66953 27.3453 0L1.18251 16.209C0.120944 16.8809 -0.309056 18.4934 0.215007 19.8203L7.90126 39.0527C8.43876 40.3797 9.72876 40.9172 10.7903 40.2621L18.3959 35.6094C19.8203 34.7359 21.4866 36.0293 21.4866 38.0281V80.625C21.4866 83.598 23.4081 86 25.7866 86H60.1866C62.565 86 64.4866 83.598 64.4866 80.625V38.0113C64.4866 36.0293 66.1528 34.7191 67.5772 35.5926L75.1828 40.2453C76.2444 40.9172 77.5344 40.3797 78.0719 39.0359L85.7716 19.8203C86.3091 18.4934 85.8791 16.8641 84.8175 16.209Z" fill="black"/>
</svg>
