<svg width="40" height="54" viewBox="0 0 40 54" fill="none" xmlns="http://www.w3.org/2000/svg">
<path d="M20.0089 13.5234C14.3303 13.5234 9.74997 19.5352 9.74997 26.9883C9.74997 34.4414 14.3303 40.4531 20.0089 40.4531C25.6875 40.4531 30.2678 34.4414 30.2678 26.9883C30.2678 19.5352 25.6875 13.5234 20.0089 13.5234ZM20.0089 35.7422C16.3393 35.7422 13.3393 31.8164 13.3393 26.9883C13.3393 22.1602 16.3303 18.2344 20.0089 18.2344C23.6875 18.2344 26.6785 22.1602 26.6785 26.9883C26.6785 31.8164 23.6785 35.7422 20.0089 35.7422ZM33.0803 12.9727C33.0803 14.7188 32.0089 16.1133 30.6875 16.1133C29.3571 16.1133 28.2946 14.707 28.2946 12.9727C28.2946 11.2383 29.366 9.83203 30.6875 9.83203C32.0089 9.83203 33.0803 11.2383 33.0803 12.9727ZM39.875 16.1602C39.7232 11.9531 38.991 8.22656 36.6428 5.15625C34.3035 2.08594 31.4642 1.125 28.2589 0.914062C24.9553 0.667969 15.0535 0.667969 11.75 0.914062C8.55355 1.11328 5.71426 2.07422 3.36605 5.14453C1.01784 8.21484 0.294625 11.9414 0.133911 16.1484C-0.0535888 20.4844 -0.0535888 33.4805 0.133911 37.8164C0.285697 42.0234 1.01784 45.75 3.36605 48.8203C5.71426 51.8906 8.54462 52.8516 11.75 53.0625C15.0535 53.3086 24.9553 53.3086 28.2589 53.0625C31.4642 52.8633 34.3035 51.9023 36.6428 48.8203C38.9821 45.75 39.7142 42.0234 39.875 37.8164C40.0625 33.4805 40.0625 20.4961 39.875 16.1602ZM35.6071 42.4688C34.9107 44.7656 33.5625 46.5352 31.8035 47.4609C29.1696 48.832 22.9196 48.5156 20.0089 48.5156C17.0982 48.5156 10.8393 48.8203 8.21426 47.4609C6.46426 46.5469 5.11605 44.7773 4.41069 42.4688C3.36605 39.0117 3.60712 30.8086 3.60712 26.9883C3.60712 23.168 3.37498 14.9531 4.41069 11.5078C5.10712 9.21094 6.45533 7.44141 8.21426 6.51562C10.8482 5.14453 17.0982 5.46094 20.0089 5.46094C22.9196 5.46094 29.1785 5.15625 31.8035 6.51562C33.5535 7.42969 34.9017 9.19922 35.6071 11.5078C36.6517 14.9648 36.4107 23.168 36.4107 26.9883C36.4107 30.8086 36.6517 39.0234 35.6071 42.4688Z" fill="white"/>
</svg>
