<svg width="40" height="54" viewBox="0 0 40 54" fill="none" xmlns="http://www.w3.org/2000/svg">
<path d="M32.6458 24.1055C32.6458 24.1055 33.1736 28.4648 33.2917 29.3789H30.9722C31.2014 28.3359 32.0833 24.2812 32.0833 24.2812C32.0694 24.3164 32.3125 23.2148 32.4514 22.5352L32.6458 24.1055ZM40 6.375V47.625C40 50.7305 38.5069 53.25 36.6667 53.25H3.33333C1.49306 53.25 0 50.7305 0 47.625V6.375C0 3.26953 1.49306 0.75 3.33333 0.75H36.6667C38.5069 0.75 40 3.26953 40 6.375ZM10.5903 35.8125L14.9792 17.625H12.0278L9.29861 30.0469L9 27.5273L8.02778 19.1602C7.86806 18 7.375 17.6719 6.76389 17.625H2.27083L2.22222 17.9883C3.31944 18.457 4.29861 19.1367 5.15278 19.9922L7.63889 35.8125H10.5903ZM17.1458 35.8359L18.8958 17.625H16.1042L14.3611 35.8359H17.1458ZM26.8611 29.8828C26.875 27.8086 26.125 26.2266 24.5208 24.9258C23.5417 24.0938 22.9444 23.5312 22.9444 22.6758C22.9583 21.9023 23.4514 21.1055 24.5486 21.1055C25.4583 21.0703 26.125 21.4336 26.625 21.7969L26.875 21.9961L27.2569 18.0586C26.7083 17.6953 25.8333 17.2852 24.7569 17.2852C22 17.2852 20.0625 19.7695 20.0486 23.3086C20.0278 25.9219 21.4375 27.375 22.4931 28.2539C23.5694 29.1445 23.9375 29.7305 23.9375 30.5156C23.9236 31.7344 23.0625 32.2969 22.2639 32.2969C21.1528 32.2969 20.5556 32.0039 19.6458 31.3242L19.2778 31.0312L18.8889 35.1211C19.5417 35.625 20.75 36.0703 22 36.0938C24.9306 36.1055 26.8403 33.6562 26.8611 29.8828ZM36.6667 35.8359L34.4167 17.625H32.2569C31.5903 17.625 31.0833 17.9531 30.7986 19.1367L26.6528 35.8359H29.5833C29.5833 35.8359 30.0625 33.5859 30.1667 33.1055H33.75C33.8333 33.75 34.0833 35.8359 34.0833 35.8359H36.6667Z" fill="white"/>
</svg>
