<svg width="40" height="39" viewBox="0 0 40 39" fill="none" xmlns="http://www.w3.org/2000/svg">
<path d="M29.2049 29.3825C28.8752 29.3825 28.553 29.2176 28.2789 28.9086C28.0048 28.5995 27.7912 28.1603 27.6651 27.6463C27.5389 27.1324 27.5059 26.5669 27.5702 26.0214C27.6345 25.4758 27.7933 24.9746 28.0264 24.5813C28.2594 24.188 28.5564 23.9201 28.8797 23.8116C29.203 23.7031 29.5381 23.7588 29.8427 23.9716C30.1472 24.1845 30.4075 24.545 30.5906 25.0075C30.7738 25.47 30.8715 26.0138 30.8715 26.57C30.8715 27.316 30.6959 28.0313 30.3834 28.5588C30.0708 29.0862 29.6469 29.3825 29.2049 29.3825ZM10.7951 29.3825C10.4655 29.3825 10.1433 29.2176 9.86919 28.9086C9.59511 28.5995 9.38149 28.1603 9.25534 27.6463C9.12919 27.1324 9.09619 26.5669 9.1605 26.0214C9.22481 25.4758 9.38354 24.9746 9.61663 24.5813C9.84972 24.188 10.1467 23.9201 10.47 23.8116C10.7933 23.7031 11.1284 23.7588 11.4329 23.9716C11.7375 24.1845 11.9978 24.545 12.1809 25.0075C12.3641 25.47 12.4618 26.0138 12.4618 26.57C12.4618 27.316 12.2862 28.0313 11.9737 28.5588C11.6611 29.0862 11.2372 29.3825 10.7951 29.3825ZM29.8021 12.4513L33.1313 2.72474C33.1842 2.59153 33.2204 2.44139 33.2376 2.28362C33.2548 2.12584 33.2526 1.96379 33.2312 1.80751C33.2097 1.65122 33.1695 1.50403 33.113 1.37505C33.0565 1.24606 32.9848 1.13803 32.9026 1.05765C32.8203 0.977262 32.7291 0.926236 32.6347 0.907728C32.5403 0.88922 32.4446 0.903625 32.3536 0.95005C32.2626 0.996475 32.1783 1.07393 32.1057 1.17762C32.0332 1.28131 31.974 1.40903 31.9319 1.55286L28.5611 11.4048C25.8686 9.36696 22.951 8.31343 20 8.31343C17.049 8.31343 14.1314 9.36696 11.4389 11.4048L8.06806 1.55286C8.02596 1.40903 7.96682 1.28131 7.89428 1.17762C7.82175 1.07393 7.73737 0.996475 7.64638 0.95005C7.55539 0.903625 7.45971 0.88922 7.36528 0.907728C7.27086 0.926236 7.17969 0.977262 7.09742 1.05765C7.01516 1.13803 6.94355 1.24606 6.88703 1.37505C6.83051 1.50403 6.79029 1.65122 6.76885 1.80751C6.74741 1.96379 6.74522 2.12584 6.7624 2.28362C6.77959 2.44139 6.81578 2.59153 6.86875 2.72474L10.1979 12.4513C4.48125 17.6978 0.572222 27.463 0 39.0001H40C39.4278 27.463 35.5181 17.6978 29.8021 12.4513Z" fill="white"/>
</svg>
