<svg width="40" height="54" viewBox="0 0 40 54" fill="none" xmlns="http://www.w3.org/2000/svg">
<path d="M12.9375 27.2578C12.9375 28.6875 12.2639 29.7773 11.4097 29.7773C10.7708 29.7773 10.2986 29.168 10.2986 28.0195C10.2986 26.5898 10.9583 25.4414 11.8056 25.4414C12.4514 25.4414 12.9375 26.1094 12.9375 27.2578ZM5.59028 21.5742H5.26389C5.15972 21.5742 5.05556 21.6914 5.04167 21.8906L4.74306 25.0195L5.3125 24.9844C6.07639 24.9844 6.66667 24.8086 6.80556 23.3203C6.96528 21.75 6.375 21.5742 5.59028 21.5742ZM25.3125 21.5742H25C24.875 21.5742 24.7917 21.6914 24.7778 21.8906L24.4861 25.0195L25.0417 24.9844C25.9444 24.9844 26.5694 24.6328 26.5694 22.875C26.5625 21.6328 25.9028 21.5742 25.3125 21.5742ZM40 6.375V47.625C40 50.7305 38.5069 53.25 36.6667 53.25H3.33333C1.49306 53.25 0 50.7305 0 47.625V6.375C0 3.26953 1.49306 0.75 3.33333 0.75H36.6667C38.5069 0.75 40 3.26953 40 6.375ZM8.90972 22.2422C8.90972 19.7812 7.78472 18.9609 6.5 18.9609H3.72222C3.54861 18.9609 3.375 19.1953 3.36111 19.5117L2.22222 31.4766C2.20139 31.7109 2.30556 31.9453 2.44444 31.9453H3.76389C3.95139 31.9453 4.125 31.6055 4.14583 31.2773L4.45833 28.1602C4.52778 27.3164 5.375 27.6094 5.70833 27.6094C7.69444 27.6094 8.90972 25.6172 8.90972 22.2422ZM14.7569 23.2734H13.4375C13.1736 23.2734 13.1597 23.918 13.1458 24.2344C12.7431 23.2383 12.1597 23.0625 11.5 23.0625C9.79861 23.0625 8.5 25.582 8.5 28.3594C8.5 30.6445 9.34722 32.1328 10.7014 32.1328C11.3264 32.1328 12.1042 31.5586 12.5417 30.7383C12.5069 30.9141 12.4722 31.2891 12.4722 31.4648C12.4722 31.7344 12.5417 31.9336 12.6944 31.9336H13.8889C14.0764 31.9336 14.2361 31.5938 14.2708 31.2656L14.9792 23.7305C15 23.5078 14.8958 23.2734 14.7569 23.2734ZM17.5694 34.7461L21.9931 23.8945C22.0278 23.8359 22.0278 23.7773 22.0278 23.6953C22.0278 23.4961 21.9236 23.2852 21.8056 23.2852H20.4722C20.3542 23.2852 20.2292 23.4023 20.1597 23.5781L18.3194 28.1484L17.5556 23.7539C17.5 23.4961 17.3472 23.2852 17.1736 23.2852H15.875C15.7569 23.2852 15.6528 23.4961 15.6528 23.6953C15.6528 23.8359 17.0069 30.3516 17.125 30.9727C16.9375 31.418 15.7014 34.3242 15.7014 34.6758C15.7014 34.8867 15.8056 35.0508 15.9236 35.0508H17.2569C17.3819 35.0391 17.5 34.9219 17.5694 34.7461ZM28.6319 22.2422C28.6319 19.7812 27.5069 18.9609 26.2222 18.9609H23.4653C23.2778 18.9609 23.1042 19.1953 23.0833 19.5117L21.9583 31.4648C21.9444 31.6992 22.0486 31.9336 22.1806 31.9336H23.6042C23.7431 31.9336 23.8472 31.7578 23.8819 31.5586L24.1944 28.1602C24.2639 27.3164 25.1111 27.6094 25.4444 27.6094C27.4167 27.6094 28.6319 25.6172 28.6319 22.2422ZM34.4792 23.2734H33.1597C32.8958 23.2734 32.8819 23.918 32.8611 24.2344C32.4792 23.2383 31.8889 23.0625 31.2153 23.0625C29.5139 23.0625 28.2153 25.582 28.2153 28.3594C28.2153 30.6445 29.0625 32.1328 30.4167 32.1328C31.0625 32.1328 31.8403 31.5586 32.2569 30.7383C32.2361 30.9141 32.1875 31.2891 32.1875 31.4648C32.1875 31.7344 32.2569 31.9336 32.4097 31.9336H33.6111C33.7986 31.9336 33.9583 31.5938 33.9931 31.2656L34.7014 23.7305C34.7222 23.5078 34.6181 23.2734 34.4792 23.2734ZM37.7778 19.3711C37.7778 19.1367 37.6736 18.9609 37.5556 18.9609H36.2708C36.1667 18.9609 36.0625 19.1016 36.0486 19.2773L34.9236 31.4648L34.9028 31.5234C34.9028 31.7344 35.0069 31.9336 35.1458 31.9336H36.2917C36.4653 31.9336 36.6389 31.5938 36.6528 31.2656L37.7778 19.4062V19.3711ZM31.5278 25.4414C30.6806 25.4414 30.0208 26.5781 30.0208 28.0195C30.0208 29.1563 30.5069 29.7773 31.1458 29.7773C31.9792 29.7773 32.6528 28.6992 32.6528 27.2578C32.6597 26.1094 32.1736 25.4414 31.5278 25.4414Z" fill="white"/>
</svg>
