<svg width="40" height="50" viewBox="0 0 40 50" fill="none" xmlns="http://www.w3.org/2000/svg">
<path d="M35.8883 12.7794C35.9137 13.3123 35.9137 13.8454 35.9137 14.3784C35.9137 30.6346 27.665 49.3657 12.5888 49.3657C7.94414 49.3657 3.62945 47.3478 0 43.8454C0.659922 43.9596 1.29437 43.9977 1.97969 43.9977C5.81211 43.9977 9.34008 42.0561 12.1573 38.7439C8.55328 38.6296 5.53297 35.0891 4.49234 30.2159C5 30.3301 5.50758 30.4062 6.04063 30.4062C6.77664 30.4062 7.51273 30.2539 8.19797 29.9875C4.44164 28.8453 1.6243 23.8961 1.6243 17.919V17.7668C2.71563 18.6805 3.98477 19.2515 5.32984 19.3276C3.12172 17.1194 1.67508 13.3504 1.67508 9.08645C1.67508 6.80223 2.08109 4.70832 2.7918 2.8809C6.82734 10.3428 12.8934 15.2158 19.6953 15.7489C19.5684 14.8352 19.4923 13.8835 19.4923 12.9317C19.4923 6.155 23.1471 0.634766 27.6902 0.634766C30.0506 0.634766 32.1826 2.11953 33.6801 4.51801C35.5328 3.98504 37.3095 2.95707 38.8831 1.54848C38.2739 4.40387 36.9795 6.80234 35.2791 8.32508C36.9288 8.05871 38.5278 7.37328 39.9998 6.4216C38.8833 8.85805 37.4873 11.028 35.8883 12.7794Z" fill="white"/>
</svg>
