<svg width="40" height="54" viewBox="0 0 40 54" fill="none" xmlns="http://www.w3.org/2000/svg">
<path d="M33.1979 28.4883C33.1771 24.1875 34.9063 20.9414 38.4063 18.5508C36.4479 15.3984 33.4896 13.6641 29.5834 13.3242C25.8854 12.9961 21.8438 15.75 20.3646 15.75C18.8021 15.75 15.2188 13.4414 12.4063 13.4414C6.59377 13.5469 0.416687 18.6562 0.416687 29.0508C0.416687 32.1211 0.916687 35.293 1.91669 38.5664C3.25002 42.8672 8.06252 53.4141 13.0834 53.2383C15.7084 53.168 17.5625 51.1406 20.9792 51.1406C24.2917 51.1406 26.0104 53.2383 28.9375 53.2383C34 53.1562 38.3542 43.5703 39.625 39.2578C32.8334 35.6602 33.1979 28.7109 33.1979 28.4883ZM27.3021 9.24609C30.1459 5.44922 29.8854 1.99219 29.8021 0.75C27.2917 0.914062 24.3854 2.67188 22.7292 4.83984C20.9063 7.16016 19.8334 10.0312 20.0625 13.2656C22.7813 13.5 25.2604 11.9297 27.3021 9.24609Z" fill="white"/>
</svg>
