<svg width="22" height="22" viewBox="0 0 22 22" fill="none" xmlns="http://www.w3.org/2000/svg">
<path d="M10.2374 21.2175C8.73676 19.5859 7.46075 18.2226 6.37609 17.0638C4.4369 14.992 3.10932 13.5736 2.2032 12.4436C1.50398 11.5716 1.0852 10.9057 0.836558 10.276C0.591084 9.65429 0.5 9.03876 0.5 8.25C0.5 6.16448 1.62593 4.23828 3.52182 2.81636C5.41787 1.39433 8.06015 0.5 11 0.5C13.9399 0.5 16.5821 1.39433 18.4782 2.81636C20.3741 4.23828 21.5 6.16448 21.5 8.25C21.5 9.03876 21.4089 9.65429 21.1634 10.276C20.9148 10.9057 20.496 11.5716 19.7968 12.4436C18.8907 13.5736 17.5631 14.992 15.6239 17.0638C14.5392 18.2226 13.2632 19.5859 11.7625 21.2176C11.6072 21.3855 11.3271 21.5 11 21.5C10.6728 21.5 10.3927 21.3854 10.2374 21.2175ZM11 12.1875C12.3634 12.1875 13.6169 11.7737 14.5409 11.0807C15.465 10.3876 16.0833 9.39191 16.0833 8.25C16.0833 7.10809 15.465 6.11242 14.5409 5.41932C13.6169 4.72633 12.3634 4.3125 11 4.3125C9.63662 4.3125 8.38307 4.72633 7.45909 5.41932C6.53496 6.11242 5.91667 7.10809 5.91667 8.25C5.91667 9.39191 6.53496 10.3876 7.45909 11.0807C8.38307 11.7737 9.63662 12.1875 11 12.1875Z" fill="white" stroke="black"/>
</svg>
