<svg width="38" height="46" viewBox="0 0 38 46" fill="none" xmlns="http://www.w3.org/2000/svg">
<path d="M37.1705 7.54098C36.7343 4.76949 35.4492 2.58676 33.8174 1.84602C30.8598 0.5 19 0.5 19 0.5C19 0.5 7.14026 0.5 4.18255 1.84602C2.55081 2.58687 1.26567 4.76949 0.829488 7.54098C0.0369873 12.5645 0.0369873 23.0455 0.0369873 23.0455C0.0369873 23.0455 0.0369873 33.5265 0.829488 38.55C1.26567 41.3214 2.55081 43.4132 4.18255 44.154C7.14026 45.5 19 45.5 19 45.5C19 45.5 30.8597 45.5 33.8174 44.154C35.4492 43.4132 36.7343 41.3214 37.1705 38.55C37.963 33.5265 37.963 23.0455 37.963 23.0455C37.963 23.0455 37.963 12.5645 37.1705 7.54098ZM15.1212 32.5614V13.5295L25.0336 23.0457L15.1212 32.5614Z" fill="white"/>
</svg>
