<svg width="40" height="54" viewBox="0 0 40 54" fill="none" xmlns="http://www.w3.org/2000/svg">
<path d="M33.5347 45.082C33.5347 45.8789 33.2153 46.4531 32.7569 46.4531C32.2847 46.4531 31.9792 45.8438 31.9792 45.082C31.9792 44.3203 32.2847 43.7109 32.7569 43.7109C33.2153 43.7109 33.5347 44.3203 33.5347 45.082ZM11.9514 43.7109C11.4583 43.7109 11.1736 44.3203 11.1736 45.082C11.1736 45.8438 11.4583 46.4531 11.9514 46.4531C12.4028 46.4531 12.7083 45.8789 12.7083 45.082C12.7014 44.3203 12.4028 43.7109 11.9514 43.7109ZM20.1111 43.6758C19.7361 43.6758 19.5069 44.0859 19.4514 44.6953H20.7778C20.7153 44.0273 20.4722 43.6758 20.1111 43.6758ZM27.5972 43.7109C27.125 43.7109 26.8403 44.3203 26.8403 45.082C26.8403 45.8438 27.125 46.4531 27.5972 46.4531C28.0694 46.4531 28.375 45.8789 28.375 45.082C28.375 44.3203 28.0694 43.7109 27.5972 43.7109ZM34.9514 46.7695C34.9514 46.8047 34.9722 46.8281 34.9722 46.8984C34.9722 46.9336 34.9514 46.957 34.9514 47.0273C34.9306 47.0625 34.9306 47.0859 34.9167 47.1211C34.8958 47.1562 34.8819 47.1797 34.8403 47.1797C34.8194 47.2148 34.8056 47.2148 34.7639 47.2148C34.7431 47.2148 34.7292 47.2148 34.6875 47.1797C34.6667 47.1797 34.6528 47.1445 34.6319 47.1211C34.6111 47.0859 34.5972 47.0625 34.5972 47.0273C34.5764 46.9688 34.5764 46.9336 34.5764 46.8984C34.5764 46.8398 34.5764 46.8047 34.5972 46.7695C34.5972 46.7109 34.6181 46.6758 34.6319 46.6406C34.6528 46.6055 34.6667 46.6055 34.6875 46.582C34.7222 46.5469 34.7431 46.5469 34.7639 46.5469C34.7986 46.5469 34.8194 46.5469 34.8403 46.582C34.875 46.6172 34.8958 46.6172 34.9167 46.6406C34.9375 46.6641 34.9306 46.7109 34.9514 46.7695ZM34.7986 46.9336C34.8333 46.9336 34.8333 46.8984 34.8542 46.8984C34.875 46.8633 34.875 46.8398 34.875 46.8047C34.875 46.7695 34.875 46.7461 34.8542 46.7109C34.8333 46.7109 34.8194 46.6758 34.7778 46.6758H34.6667V47.0859H34.7222V46.9219H34.7431L34.8194 47.0859H34.875L34.7986 46.9336ZM40 6.49219V47.7422C40 50.8477 38.5069 53.3672 36.6667 53.3672H3.33333C1.49306 53.3672 0 50.8477 0 47.7422V6.49219C0 3.38672 1.49306 0.867188 3.33333 0.867188H36.6667C38.5069 0.867188 40 3.38672 40 6.49219ZM4.44444 22.8516C4.44444 31.8164 8.75694 39.082 14.0625 39.082C15.9514 39.082 17.8056 38.1211 19.375 36.375C14.3125 29.4258 14.3472 16.3125 19.375 9.36328C17.8056 7.60547 15.9514 6.65625 14.0625 6.65625C8.75694 6.64453 4.44444 13.9219 4.44444 22.8516ZM20 35.6016C24.8958 29.1562 24.875 16.5938 20 10.1133C15.125 16.5938 15.1042 29.168 20 35.6016ZM10.1181 44.543C10.1181 43.5234 9.72222 42.8555 9.09722 42.8203C8.77778 42.8203 8.4375 42.9844 8.20833 43.582C8.04167 43.1016 7.75694 42.8203 7.36111 42.8203C7.09722 42.8203 6.83333 42.9844 6.625 43.4531V42.9375H6.05556V47.2383H6.625C6.625 45.0234 6.45139 43.6992 7.25 43.6992C7.95833 43.6992 7.81944 44.8945 7.81944 47.2383H8.36806C8.36806 45.0938 8.19444 43.6992 8.99306 43.6992C9.70139 43.6992 9.5625 44.8711 9.5625 47.2383H10.1319V44.543H10.1181ZM13.2361 42.9375H12.6875V43.4531C12.5 43.0664 12.2361 42.8203 11.875 42.8203C11.1597 42.8203 10.6111 43.7812 10.6111 45.082C10.6111 46.3945 11.1597 47.3438 11.875 47.3438C12.2361 47.3438 12.5 47.1211 12.6875 46.7109V47.25H13.2361V42.9375ZM16.0486 45.9375C16.0486 44.1797 14.4583 44.9766 14.4583 44.1562C14.4583 43.4883 15.2847 43.5938 15.7431 44.0273L15.9722 43.2656C15.3194 42.5508 13.875 42.5625 13.875 44.2266C13.875 45.9023 15.4653 45.1992 15.4653 45.9844C15.4653 46.7227 14.5278 46.6641 14.0278 46.0781L13.7847 46.8164C14.5625 47.707 16.0486 47.5195 16.0486 45.9375ZM18.5069 47.0273L18.3542 46.2305C18.0903 46.4766 17.5069 46.7461 17.5069 45.75V43.8047H18.4167V42.9375H17.5069V41.625H16.9375V42.9375H16.4097V43.793H16.9375V45.75C16.9375 47.8125 18.1389 47.4375 18.5069 47.0273ZM19.4306 45.457H21.3403C21.3403 43.5586 20.8264 42.8086 20.1319 42.8086C19.3958 42.8086 18.8681 43.7344 18.8681 45.0703C18.8681 47.4727 20.4375 47.8711 21.2153 46.7344L20.9514 46.0312C20.4097 46.7812 19.5903 46.7109 19.4306 45.457ZM23.5347 42.9375C23.2153 42.7031 22.7292 42.7266 22.4792 43.4531V42.9375H21.9097V47.2383H22.4792V44.8125C22.4792 43.4531 23.1389 43.6289 23.3681 43.8281L23.5347 42.9375ZM24.2708 45.082C24.2708 43.7461 25.0764 43.3125 25.7083 44.0977L25.9722 43.3359C25.1667 42.2695 23.7014 42.8555 23.7014 45.0938C23.7014 47.4141 25.2569 47.8828 25.9722 46.8516L25.7083 46.0898C25.0694 46.8516 24.2708 46.3945 24.2708 45.082ZM28.9028 42.9375H28.3333V43.4531C27.7569 42.1641 26.2569 42.8906 26.2569 45.082C26.2569 47.332 27.8125 47.9766 28.3333 46.7109V47.25H28.9028V42.9375ZM31.2431 42.9375C31.0764 42.7969 30.4792 42.5977 30.1875 43.4531V42.9375H29.6389V47.2383H30.1875V44.8125C30.1875 43.5234 30.8125 43.6055 31.0764 43.8281L31.2431 42.9375ZM34.0417 41.1914H33.4931V43.4531C32.9236 42.1758 31.4167 42.8555 31.4167 45.082C31.4167 47.3555 32.9792 47.9648 33.4931 46.7109V47.25H34.0417V41.1914ZM34.5694 32.3906V32.9297H34.625V32.3906H34.7569V32.2969H34.4375V32.3906H34.5694ZM35.0278 46.8984C35.0278 46.8398 35.0278 46.7695 35.0069 46.7109C34.9861 46.6758 34.9722 46.6172 34.9514 46.582C34.9306 46.5469 34.8958 46.5234 34.875 46.4883C34.8403 46.4883 34.7986 46.4531 34.7639 46.4531C34.7431 46.4531 34.7083 46.4883 34.6667 46.4883C34.6319 46.5234 34.6111 46.5469 34.5903 46.582C34.5556 46.6172 34.5347 46.6758 34.5347 46.7109C34.5139 46.7695 34.5139 46.8398 34.5139 46.8984C34.5139 46.9336 34.5139 46.9922 34.5347 47.0625C34.5347 47.0977 34.5556 47.1562 34.5903 47.1914C34.6111 47.2266 34.625 47.25 34.6667 47.2852C34.7014 47.3203 34.7431 47.3203 34.7639 47.3203C34.7986 47.3203 34.8403 47.3203 34.875 47.2852C34.8958 47.25 34.9306 47.2266 34.9514 47.1914C34.9722 47.1562 34.9861 47.0977 35.0069 47.0625C35.0278 46.9922 35.0278 46.9336 35.0278 46.8984ZM35.25 32.2852H35.1528L35.0417 32.6953L34.9306 32.2852H34.8333V32.918H34.8889V32.4375L35 32.8477H35.0764L35.1736 32.4375V32.918H35.25V32.2852ZM35.5556 22.8516C35.5556 13.9219 31.2431 6.64453 25.9375 6.64453C24.0486 6.64453 22.1944 7.60547 20.625 9.35156C25.6319 16.3008 25.7083 29.4492 20.625 36.3633C22.1944 38.1211 24.0625 39.0703 25.9375 39.0703C31.2431 39.082 35.5556 31.8164 35.5556 22.8516Z" fill="white"/>
</svg>
