<svg width="86" height="71" viewBox="0 0 86 71" fill="none" xmlns="http://www.w3.org/2000/svg">
<path d="M35.045 38.889C31.1978 35.0358 26.7137 33 22.0912 33C11.6906 33 2.88502 43.535 0.192148 59.2132C-0.284883 62.0015 0.134367 64.8956 1.34374 67.1581C2.51952 69.3602 4.27715 70.625 6.16512 70.625H79.55C65.6812 70.625 58.7219 64.3984 48.2151 53.079L35.045 38.889ZM66.5761 35.8168L62.9412 9.51797C62.7456 8.09092 62.3214 6.72796 61.694 5.51088C61.0667 4.2938 60.2491 3.24768 59.2903 2.43527C58.3316 1.62287 57.2514 1.06093 56.1146 0.783169C54.9779 0.50541 53.8079 0.517554 52.675 0.818873L26.9892 7.63672C25.215 8.10737 23.6053 9.26712 22.3901 10.9502C21.1749 12.6332 20.4166 14.7535 20.2234 17.0077L19.2976 27.9609C20.2248 27.8215 21.1385 27.625 22.0912 27.625C27.7068 27.625 33.11 30.0689 37.8521 34.8174L51.0208 49.0074C60.5709 59.2938 66.5022 65.25 79.55 65.25C81.2606 65.25 82.9012 64.4006 84.1108 62.8885C85.3204 61.3765 86 59.3258 86 57.1875C86 52.9228 82.0225 37.1438 66.5761 35.8168Z" fill="black"/>
</svg>
