<svg width="86" height="66" viewBox="0 0 86 66" fill="none" xmlns="http://www.w3.org/2000/svg">
<path d="M21.5 27.625V38.375H64.5V27.625C64.5 21.6957 68.3566 16.875 73.1 16.875H77.4C77.4 7.97266 71.6219 0.75 64.5 0.75H21.5C14.3781 0.75 8.6 7.97266 8.6 16.875H12.9C17.6434 16.875 21.5 21.6957 21.5 27.625ZM77.4 22.25H73.1C70.7216 22.25 68.8 24.652 68.8 27.625V43.75H17.2V27.625C17.2 24.652 15.2784 22.25 12.9 22.25H8.6C3.85656 22.25 0 27.0707 0 33C0 36.9641 1.74688 40.3906 4.3 42.2551V62.5625C4.3 64.0406 5.2675 65.25 6.45 65.25H15.05C16.2325 65.25 17.2 64.0406 17.2 62.5625V59.875H68.8V62.5625C68.8 64.0406 69.7675 65.25 70.95 65.25H79.55C80.7325 65.25 81.7 64.0406 81.7 62.5625V42.2551C84.2531 40.3906 86 36.9641 86 33C86 27.0707 82.1434 22.25 77.4 22.25Z" fill="black"/>
</svg>
