<svg width="86" height="86" viewBox="0 0 86 86" fill="none" xmlns="http://www.w3.org/2000/svg">
<path d="M69.2787 0H16.7232C16.1259 0 15.5586 0.335938 15.2301 0.907031L0.299545 25.632C-0.133441 26.3711 -0.0886494 27.3453 0.404059 28.0172L41.6124 85.2609C42.3291 86.252 43.6728 86.252 44.3895 85.2609L85.5978 28.0172C86.0905 27.3285 86.1353 26.3711 85.7023 25.632L70.7867 0.907031C70.4433 0.335938 69.8908 0 69.2787 0ZM66.3971 8.0625L75.8481 24.1875H65.6356L57.9165 8.0625H66.3971ZM36.2225 8.0625H49.7645L57.4836 24.1875H28.5183L36.2225 8.0625ZM19.6047 8.0625H28.0853L20.3662 24.1875H10.1537L19.6047 8.0625ZM13.1846 32.25H20.8589L31.0565 59.125L13.1846 32.25ZM28.5481 32.25H57.4537L43.0009 73.1168L28.5481 32.25ZM54.9454 59.125L65.128 32.25H72.8023L54.9454 59.125Z" fill="black"/>
</svg>
