<svg width="86" height="86" viewBox="0 0 86 86" fill="none" xmlns="http://www.w3.org/2000/svg">
<path d="M6.45 0C2.89309 0 0 3.61637 0 8.0625V18.8125C0 20.2973 0.962125 21.5 2.15 21.5H12.9V8.0625C12.9 3.61637 10.0069 0 6.45 0ZM34.4 69.2989V59.125H73.1V16.125C73.1 7.23273 67.3138 0 60.2 0H14.9949C16.3588 2.25246 17.2 5.02562 17.2 8.0625V69.875C17.2 76.4039 21.8561 81.574 27.2445 80.4772C31.4733 79.6172 34.4 74.6554 34.4 69.2989ZM38.7 64.5V69.875C38.7 78.7656 32.9138 86 25.8 86H70.95C79.2624 86 86 77.578 86 67.1875C86 65.7027 85.0379 64.5 83.85 64.5H38.7Z" fill="black"/>
</svg>
