<svg width="40" height="42" viewBox="0 0 40 42" fill="none" xmlns="http://www.w3.org/2000/svg">
<path d="M36.675 24.7176L39.9578 7.65507C40.1949 6.42313 39.4022 5.25 38.3326 5.25H11.0561L10.4196 1.57418C10.261 0.657973 9.57847 0 8.78674 0H1.66667C0.746181 0 0 0.881426 0 1.96875V3.28125C0 4.36857 0.746181 5.25 1.66667 5.25H6.51965L11.398 33.4224C10.2309 34.2152 9.44444 35.7018 9.44444 37.4062C9.44444 39.9433 11.1856 42 13.3333 42C15.4811 42 17.2222 39.9433 17.2222 37.4062C17.2222 36.1205 16.7745 34.9588 16.0539 34.125H30.6127C29.8922 34.9588 29.4444 36.1205 29.4444 37.4062C29.4444 39.9433 31.1856 42 33.3333 42C35.4811 42 37.2222 39.9433 37.2222 37.4062C37.2222 35.5875 36.3272 34.0157 35.0292 33.2715L35.4124 31.2801C35.6494 30.0481 34.8567 28.875 33.7872 28.875H15.147L14.6925 26.25H35.0498C35.828 26.25 36.5026 25.6139 36.675 24.7176Z" fill="black"/>
</svg>
