<svg width="36" height="30" viewBox="0 0 36 30" fill="none" xmlns="http://www.w3.org/2000/svg">
<path d="M25.2 17.8125C22.8937 17.8125 21.7848 18.75 18 18.75C14.2152 18.75 13.1143 17.8125 10.8 17.8125C4.8375 17.8125 0 21.3398 0 25.6875V27.1875C0 28.7402 1.72768 30 3.85714 30H32.1429C34.2723 30 36 28.7402 36 27.1875V25.6875C36 21.3398 31.1625 17.8125 25.2 17.8125ZM32.1429 27.1875H3.85714V25.6875C3.85714 22.8984 6.975 20.625 10.8 20.625C11.9732 20.625 13.8777 21.5625 18 21.5625C22.1545 21.5625 24.0187 20.625 25.2 20.625C29.025 20.625 32.1429 22.8984 32.1429 25.6875V27.1875ZM18 16.875C24.3884 16.875 29.5714 13.0957 29.5714 8.4375C29.5714 3.7793 24.3884 0 18 0C11.6116 0 6.42857 3.7793 6.42857 8.4375C6.42857 13.0957 11.6116 16.875 18 16.875ZM18 2.8125C22.2509 2.8125 25.7143 5.33789 25.7143 8.4375C25.7143 11.5371 22.2509 14.0625 18 14.0625C13.7491 14.0625 10.2857 11.5371 10.2857 8.4375C10.2857 5.33789 13.7491 2.8125 18 2.8125Z" fill="black"/>
</svg>
