<svg width="86" height="86" viewBox="0 0 86 86" fill="none" xmlns="http://www.w3.org/2000/svg">
<path d="M69.875 32.25C69.872 34.4683 69.4086 36.6619 68.5141 38.6919C67.6195 40.7219 66.3133 42.544 64.678 44.0431C68.2333 45.341 71.2172 47.8506 73.1054 51.1307C74.9936 54.4108 75.6652 58.2515 75.0021 61.9777C74.3391 65.7039 72.3838 69.0772 69.48 71.5046C66.5762 73.932 62.9097 75.2581 59.125 75.25H26.875C22.5984 75.25 18.4969 73.5511 15.4729 70.5271C12.4489 67.5031 10.75 63.4016 10.75 59.125C10.75 54.8484 12.4489 50.7469 15.4729 47.7229C18.4969 44.6989 22.5984 43 26.875 43H41.8091C39.1269 40.0612 37.6352 36.2288 37.625 32.25H16.125C11.8484 32.25 7.74693 33.9489 4.7229 36.9729C1.69888 39.9969 0 44.0984 0 48.375L0 69.875C0 74.1516 1.69888 78.2531 4.7229 81.2771C7.74693 84.3011 11.8484 86 16.125 86H69.875C74.1516 86 78.2531 84.3011 81.2771 81.2771C84.3011 78.2531 86 74.1516 86 69.875V48.375C86 44.0984 84.3011 39.9969 81.2771 36.9729C78.2531 33.9489 74.1516 32.25 69.875 32.25ZM53.75 43C55.8761 43 57.9546 42.3695 59.7224 41.1883C61.4902 40.0071 62.8681 38.3282 63.6817 36.3638C64.4953 34.3995 64.7082 32.2381 64.2934 30.1528C63.8787 28.0675 62.8548 26.152 61.3514 24.6486C59.848 23.1452 57.9325 22.1214 55.8472 21.7066C53.7619 21.2918 51.6005 21.5047 49.6362 22.3183C47.6718 23.1319 45.9929 24.5098 44.8117 26.2776C43.6305 28.0455 43 30.1239 43 32.25C43 35.1011 44.1326 37.8354 46.1486 39.8514C48.1646 41.8674 50.8989 43 53.75 43ZM34.9375 16.125C36.5321 16.125 38.0909 15.6521 39.4168 14.7662C40.7427 13.8803 41.776 12.6211 42.3863 11.1479C42.9965 9.67466 43.1562 8.05356 42.8451 6.48959C42.534 4.92562 41.7661 3.48902 40.6385 2.36146C39.511 1.23389 38.0744 0.466016 36.5104 0.154922C34.9464 -0.156171 33.3253 0.00349337 31.8521 0.613725C30.3789 1.22396 29.1197 2.25735 28.2338 3.58322C27.3479 4.90909 26.875 6.46789 26.875 8.0625C26.875 10.2008 27.7244 12.2515 29.2365 13.7636C30.7485 15.2756 32.7992 16.125 34.9375 16.125ZM64.5 10.75C65.5631 10.75 66.6023 10.4348 67.4862 9.84415C68.3701 9.25354 69.059 8.41408 69.4659 7.43193C69.8727 6.44977 69.9791 5.36904 69.7717 4.32639C69.5643 3.28375 69.0524 2.32601 68.3007 1.5743C67.549 0.822598 66.5913 0.310678 65.5486 0.103283C64.506 -0.104113 63.4252 0.00233013 62.4431 0.409151C61.4609 0.815972 60.6215 1.5049 60.0308 2.38881C59.4402 3.27273 59.125 4.31193 59.125 5.375C59.125 6.80054 59.6913 8.1677 60.6993 9.1757C61.7073 10.1837 63.0745 10.75 64.5 10.75ZM26.875 48.375C24.0239 48.375 21.2896 49.5076 19.2736 51.5236C17.2576 53.5396 16.125 56.2739 16.125 59.125C16.125 61.9761 17.2576 64.7104 19.2736 66.7264C21.2896 68.7424 24.0239 69.875 26.875 69.875H59.125C61.9761 69.875 64.7104 68.7424 66.7264 66.7264C68.7424 64.7104 69.875 61.9761 69.875 59.125C69.875 56.2739 68.7424 53.5396 66.7264 51.5236C64.7104 49.5076 61.9761 48.375 59.125 48.375H26.875Z" fill="black"/>
</svg>
