<svg width="41" height="30" viewBox="0 0 41 30" fill="none" xmlns="http://www.w3.org/2000/svg">
<path d="M39.975 20.625H38.95V14.291C38.95 13.5469 38.6233 12.832 38.0467 12.3047L31.6469 6.45117C31.0703 5.92383 30.2887 5.625 29.4752 5.625H26.65V2.8125C26.65 1.25977 25.2727 0 23.575 0H3.075C1.37734 0 0 1.25977 0 2.8125V21.5625C0 23.1152 1.37734 24.375 3.075 24.375H4.1C4.1 27.4805 6.85469 30 10.25 30C13.6453 30 16.4 27.4805 16.4 24.375H24.6C24.6 27.4805 27.3547 30 30.75 30C34.1453 30 36.9 27.4805 36.9 24.375H39.975C40.5387 24.375 41 23.9531 41 23.4375V21.5625C41 21.0469 40.5387 20.625 39.975 20.625ZM10.25 27.1875C8.55234 27.1875 7.175 25.9277 7.175 24.375C7.175 22.8223 8.55234 21.5625 10.25 21.5625C11.9477 21.5625 13.325 22.8223 13.325 24.375C13.325 25.9277 11.9477 27.1875 10.25 27.1875ZM30.75 27.1875C29.0523 27.1875 27.675 25.9277 27.675 24.375C27.675 22.8223 29.0523 21.5625 30.75 21.5625C32.4477 21.5625 33.825 22.8223 33.825 24.375C33.825 25.9277 32.4477 27.1875 30.75 27.1875ZM35.875 15H26.65V8.4375H29.4752L35.875 14.291V15Z" fill="black"/>
</svg>
